<?xml version="1.0" encoding="utf-8"?>
<!-- Generator: Adobe Illustrator 26.3.1, SVG Export Plug-In . SVG Version: 6.00 Build 0)  -->
<svg version="1.1" id="Layer_1" xmlns="http://www.w3.org/2000/svg" xmlns:xlink="http://www.w3.org/1999/xlink" x="0px" y="0px"
	 viewBox="0 0 490 220" style="enable-background:new 0 0 490 220;" xml:space="preserve">
<style type="text/css">
	.st0{fill:#1C49B4;}
</style>
<g>
	<path class="st0" d="M394.2,76.4h-20.8v29.9H394c8.2,0,14-6.7,14-14.9C408,82.4,402.4,76.4,394.2,76.4 M394.3,126.7h-20.8v37.6
		h-24.5V55.9h48.1c19.8,0,36.4,11.9,36.4,34.1C433.6,110.4,419.8,126.7,394.3,126.7 M101.4,102.8c9.9,0,16.3-5.6,16.3-13.6
		c0-8.8-5.3-13.3-15.2-13.3H80v27H101.4z M140,154c0,3.7,1.2,8.7,2.3,10.4h-25.7c-1.1-1.9-1.1-7.3-1.1-12.1V134
		c0-7.1-3.4-10.8-10.5-10.8H80v41.2H55.6V55.9h50.5c23.9,0,36,12.9,36,29.6c0,11-5.4,21.2-16.7,26.5c8.5,1.9,14.7,9.8,14.7,19.7V154
		z M192.3,165.4c-26.2,0-43.4-11.2-44-35.5h25.3c0,8.2,5.3,16.4,19.8,16.4c10.2,0,20-2.8,20-13.2c0-21.2-62.8-0.6-62.8-46.2
		c0-22.6,21.2-32.2,41.7-32.2c22.5,0,43.7,8.5,44.3,34.5h-25c0-6.5-2.5-15.6-18.9-15.6c-12.1,0-17.2,5.4-17.2,11.8
		c0,21.8,62.9,2.9,62.9,44.9C238.5,151.6,223.3,165.4,192.3,165.4 M312.9,164.4v-43.2h-41.3v43.2H247V55.9h24.5v43.4h41.3V55.9h24.3
		v108.4H312.9z"/>
</g>
</svg>
